<?xml version='1.0' encoding='ASCII'?>
<svg xmlns="http://www.w3.org/2000/svg" style="enable-background:new 0 0 595.276 841.89;" version="1.1" viewBox="-72.27 -112.939 144.54 204.951" x="0px" y="0px" xml:space="preserve">
<g id="Body">
	<g id="F_8_">
		<g id="Slim_x5F_Midi">
			<path d="M61.409,-91.012c0,0,8.554,23.863,9.505,50.77c0.951,26.908,0,39.621,0,39.621l-8.074,88.406c0,0-12.328,3.215-25.639,3.215c-16.069,0-28.529-3.215-28.529-3.215l0,0c-1.552-51.937-4.189-97.931-8.66-97.931l-0.022,0.012c-4.471,0-7.108,45.986-8.66,97.919v0.012c0,0-12.461,3.215-28.53,3.215c-13.311,0-25.639-3.215-25.639-3.215l-8.074-88.406c0,0-0.951-12.713,0-39.621c0.951-26.908,9.505-50.77,9.505-50.77" id="open_116_" style="fill:#000000;stroke:#000000;stroke-width:2;stroke-linejoin:round;stroke-miterlimit:10;" />
			<path d="M57.818,-90.604c0,0,8.62,26.677,9.476,46.438c0.259,5.99,2.211,23.301,0.03,47.703c-2.218,24.818-6.709,67.926-7.614,84.248" id="open_120_" style="fill:#000000;stroke:#000000;stroke-linecap:round;stroke-miterlimit:10;" />
			<path d="M-57.818,-90.592c0,0-8.62,26.677-9.476,46.438c-0.259,5.99-2.211,23.301-0.03,47.703c2.218,24.812,6.707,67.905,7.614,84.235" id="open_118_" style="fill:#000000;stroke:#000000;stroke-linecap:round;stroke-miterlimit:10;" />
			
				<line id="open_157_" style="fill:#000000;stroke:#000000;stroke-linecap:round;stroke-miterlimit:10;" x1="-0.033" x2="-0.033" y1="-10.146" y2="-87.205" />
			<path d="M-11.671,13.084c0,0-6.275,30.054-21.297,57.832c0,0,10.158-13.545,17.465-36.356C-14.522,31.441-13.631,27.164-11.671,13.084z" id="close_75_" style="fill:#000000;" />
			<path d="M16.972,42.206c0,0,3.831,18.348,13.002,35.306c0,0-6.202-8.269-10.662-22.195C18.713,53.412,18.169,50.801,16.972,42.206z" id="close_76_" style="fill:#000000;" />
			<path d="M-15.914,-0.462c0,0,17.441-14.303,24.605-13.307c7.029,0.977,2.265,6.562,2.265,6.562s4.427-5.374-3.089-5.374C0.352-12.581-15.914-0.462-15.914-0.462z" id="close_55_" style="fill:#000000;" />
			<path d="M-15.972,-0.462c0,0,17.974-16.162,25.016-14.345c6.768,1.747,2.455,6.765,2.455,6.765s3.903-5.07-3.324-5.777C1.585-14.463-15.972-0.462-15.972-0.462z" id="close_9_" />
			</g>
		</g>
</g>
</svg>