<?xml version='1.0' encoding='ASCII'?>
<svg xmlns="http://www.w3.org/2000/svg" style="enable-background:new 0 0 595.276 841.89;" version="1.1" viewBox="-72.27 -112.939 144.54 204.951" x="0px" y="0px" xml:space="preserve">
<g><g transform="translate(0, 0) scale(1 1) translate(-0.097, 32.815999999999995) scale(1 1)  rotate(0.000000 0.000000 0.000000)"><g id="Body_x5F_Option">
	<g id="F_3_">
		<g id="In_x5F_pk_x2A_Slim">
			<path d="M41.286,-1.456c0,0,18.437-2.797,25.017-1.776c0,0-4.239,0.731-10.442,1.119C49.659-1.726,41.286-1.456,41.286-1.456z" id="close_721_" style="fill:#000000;" />
			
				<path d="M67.757,-3.051c0,0-13.596,1.691-26.639,1.755l-0.039,5.447c0,0,16.556-0.512,26.085-1.653L67.757-3.051z" id="close_720_" style="fill:#000000;stroke:#000000;stroke-width:1.5;stroke-linecap:round;stroke-linejoin:round;stroke-miterlimit:10;" />
			<g id="open_96_">
				<g>
					<path d="M67.344,2.852l-0.073,0.746c-0.251,0.026-0.5,0.053-0.746,0.078" style="fill:#000000;stroke:#000000;stroke-width:0.5;stroke-linecap:round;stroke-linejoin:round;" />
					
						<path d="M65.529,3.78c-15.79,1.621-22.147,1.658-24.493,1.546" style="fill:#000000;stroke:#000000;stroke-width:0.5;stroke-linecap:round;stroke-linejoin:round;stroke-dasharray:1.5028,1.0019;" />
					<path d="M40.541,5.297c-0.553-0.04-0.741-0.084-0.741-0.084l-0.002-0.75" style="fill:#000000;stroke:#000000;stroke-width:0.5;stroke-linecap:round;stroke-linejoin:round;" />
					
						<line style="fill:#000000;stroke:#000000;stroke-width:0.5;stroke-linecap:round;stroke-linejoin:round;stroke-dasharray:1.5821,1.0547;" x1="39.793" x2="39.779" y1="3.408" y2="-1.338" />
					<path d="M39.777,-1.866l-0.002-0.75c0.25-0.002,0.5-0.004,0.75-0.007" style="fill:#000000;stroke:#000000;stroke-width:0.5;stroke-linecap:round;stroke-linejoin:round;" />
					
						<path d="M41.556,-2.637c10.828-0.182,21.646-1.235,25.246-1.614" style="fill:#000000;stroke:#000000;stroke-width:0.5;stroke-linecap:round;stroke-linejoin:round;stroke-dasharray:1.5487,1.0325;" />
					<path d="M67.312,-4.306c0.482-0.052,0.742-0.082,0.742-0.082l-0.073,0.746" style="fill:#000000;stroke:#000000;stroke-width:0.5;stroke-linecap:round;stroke-linejoin:round;" />
					
						<line style="fill:#000000;stroke:#000000;stroke-width:0.5;stroke-linecap:round;stroke-linejoin:round;stroke-dasharray:1.6311,1.0874;" x1="67.875" x2="67.398" y1="-2.559" y2="2.311" />
				</g>
			</g>
			<path d="M-41.067,-2.394c0,0-18.437-2.797-25.017-1.776c0,0,4.239,0.731,10.442,1.119S-41.067-2.394-41.067-2.394z" id="close_719_" style="fill:#000000;" />
			
				<path d="M-67.757,-3.989c0,0,13.817,1.691,26.859,1.755l0.039,5.447c0,0-16.83-0.432-26.358-1.573L-67.757-3.989z" id="close_718_" style="fill:#000000;stroke:#000000;stroke-width:1.5;stroke-linecap:round;stroke-linejoin:round;stroke-miterlimit:10;" />
			<g id="open_93_">
				<g>
					<path d="M-67.392,1.993l0.068,0.747c0.251,0.026,0.5,0.052,0.746,0.078" style="fill:#000000;stroke:#000000;stroke-width:0.5;stroke-linecap:round;stroke-linejoin:round;" />
					
						<path d="M-65.572,2.923c15.897,1.628,22.368,1.615,24.751,1.478" style="fill:#000000;stroke:#000000;stroke-width:0.5;stroke-linecap:round;stroke-linejoin:round;stroke-dasharray:1.5185,1.0123;" />
					<path d="M-40.32,4.366c0.547-0.046,0.74-0.091,0.74-0.091l0.002-0.75" style="fill:#000000;stroke:#000000;stroke-width:0.5;stroke-linecap:round;stroke-linejoin:round;" />
					
						<line style="fill:#000000;stroke:#000000;stroke-width:0.5;stroke-linecap:round;stroke-linejoin:round;stroke-dasharray:1.5821,1.0547;" x1="-39.574" x2="-39.558" y1="2.47" y2="-2.276" />
					<path d="M-39.558,-2.803l0.002-0.75c-0.25-0.002-0.5-0.004-0.75-0.007" style="fill:#000000;stroke:#000000;stroke-width:0.5;stroke-linecap:round;stroke-linejoin:round;" />
					
						<path d="M-41.344,-3.575c-10.853-0.183-21.817-1.237-25.453-1.615" style="fill:#000000;stroke:#000000;stroke-width:0.5;stroke-linecap:round;stroke-linejoin:round;stroke-dasharray:1.5614,1.0409;" />
					<path d="M-67.312,-5.245c-0.482-0.051-0.742-0.081-0.742-0.081l0.068,0.747" style="fill:#000000;stroke:#000000;stroke-width:0.5;stroke-linecap:round;stroke-linejoin:round;" />
					
						<line style="fill:#000000;stroke:#000000;stroke-width:0.5;stroke-linecap:round;stroke-linejoin:round;stroke-dasharray:1.6497,1.0998;" x1="-67.889" x2="-67.442" y1="-3.483" y2="1.446" />
				</g>
			</g>
			</g>
		</g>
</g>
</g></g></svg>