<?xml version='1.0' encoding='ASCII'?>
<svg xmlns="http://www.w3.org/2000/svg" style="enable-background:new 0 0 595.276 841.89;" version="1.1" viewBox="-72.27 -112.939 144.54 204.951" x="0px" y="0px" xml:space="preserve">
<g><g transform="translate(0, 0) scale(1 1) translate(0.322, -77.59) scale(1 1)  rotate(0.000000 0.000000 0.000000)"><g id="Open">
	<g id="F_5_">
		<g id="Band_2_">
			
				<path d="M-0.308,-20.118c40.875,0,61.342,3.708,61.342,3.708l-4.017-15.387c0,0-4.943-2.552-57.327-2.552h0.004c-52.384,0-57.327,2.552-57.327,2.552l-4.12,15.374C-61.753-16.421-41.183-20.118-0.308-20.118z" id="close_403_" style="fill:#000000;stroke:#000000;stroke-width:2;stroke-linecap:round;stroke-linejoin:round;stroke-miterlimit:10;" />
			<path d="M-11.903,-2.293c0,0,1.232,3.163,48.638,0.223c0,0,22.973-4.162,24.95-1.752c0.638,0.777,1.397,4.272,1.671,5.031c0.942,2.601,1.052,3.358,1.953,4.366l-1.366-5.446l-2.719-9.843c0,0-10.973,4.051-27.139,5.777C17.955-2.216-2.25-1.944-11.903-2.293z" id="close_405_" style="fill:#000000;" />
			
				<path d="M-63.795,-9.675l1.67-5.66l4.388-15.605c0,0,22.385,8.02,57.339,8.02l0.012,0.013c34.953,0,57.339-8.02,57.339-8.02l4.082,14.518l2.059,6.735c0,0-15.167,7.903-63.401,7.903S-63.795-9.675-63.795-9.675z" id="close_407_" style="fill:#000000;stroke:#000000;stroke-width:2;stroke-linecap:round;stroke-linejoin:round;stroke-miterlimit:10;" />
			
				<line id="open_182_" style="fill:#000000;stroke:#000000;stroke-linecap:round;stroke-linejoin:round;stroke-miterlimit:10;" x1="-0.308" x2="-0.308" y1="-1.476" y2="34.108" />
			<path d="M-0.308,1.524" id="open_190_" style="fill:#000000;stroke:#000000;stroke-linecap:round;stroke-linejoin:round;stroke-miterlimit:10;" />
			<path d="M-0.308,-18.971" id="open_189_" style="fill:#000000;stroke:#000000;stroke-linecap:round;stroke-linejoin:round;stroke-miterlimit:10;" />
			<g id="open_179_">
				<g>
					
						<line style="fill:#000000;stroke:#000000;stroke-width:0.5;stroke-linecap:round;stroke-linejoin:round;" x1="10.388" x2="10.388" y1="-1.772" y2="-1.022" />
					
						<path d="M10.388,-0.012v23.843c0,0,1.263,9.772-9.443,10.478" style="fill:#000000;stroke:#000000;stroke-width:0.5;stroke-linecap:round;stroke-linejoin:round;stroke-dasharray:1.5131,1.0087;" />
					<path d="M0.442,34.334c-0.244,0.009-0.494,0.014-0.75,0.014" style="fill:#000000;stroke:#000000;stroke-width:0.5;stroke-linecap:round;stroke-linejoin:round;" />
				</g>
			</g>
			<g id="open_186_">
				<path d="M10.388,1.228" style="fill:#000000;" />
			</g>
			<g id="open_185_">
				<path d="M10.388,-19.416" style="fill:#000000;" />
			</g>
			<path d="M-62.443,-8.226l-1.411,5.272l-1.455,6.056c0,0,2.314-6.214,6.52-6.694c3.898-0.446,12.21-0.489,21.861,1.158C-36.929-2.435-53.644-5.108-62.443-8.226z" id="close_404_" style="fill:#000000;" />
			<path d="M-59.871,-7.252c-0.719,2.557-1.554,5.758-2.357,9.379" id="open_183_" style="fill:#000000;stroke:#000000;stroke-linecap:round;stroke-miterlimit:10;" />
			<path d="M59.169,-7.127c0.763,2.667,1.683,6.137,2.565,10.113" id="open_181_" style="fill:#000000;stroke:#000000;stroke-linecap:round;stroke-miterlimit:10;" />
			<path d="M-23.224,-6.397c0,0,24.683-0.238,35.406-3.802c10.769-3.58,19.248-4.703,16.634-1.52c0,0,1.545-1.302-0.03-2.193c-1.574-0.891-5.343-0.802-10.409,0.802c-5.066,1.604-10.07,3.215-14.512,4.04C-0.366-8.284-4.986-7.11-23.224-6.397z" id="close_406_" style="fill:#000000;" />
			</g>
		</g>
</g>
</g></g></svg>