<?xml version='1.0' encoding='ASCII'?>
<svg xmlns="http://www.w3.org/2000/svg" style="enable-background:new 0 0 595.276 841.89;" version="1.1" viewBox="-72.27 -112.939 144.54 204.951" x="0px" y="0px" xml:space="preserve">
<g><g transform="translate(0, 0) scale(1 1) translate(-0.068, -69.053) scale(1 1)  rotate(0.000000 0.000000 0.000000)"><g id="Up_x5F_Option_1_">
	<g id="F_6_">
		<g id="Basic_x5F_pk">
			<path d="M55.526,-16.148c0,0,4.149,15.634,7.678,26.985c1.958,6.299,3.364,9.514,3.743,13.188c0,0-1.069-14.109-2.982-19.342c0,0,2.748,15.74-3.672-5.148L55.526-16.148z" id="close_7_" style="fill:#000000;" />
			
				<path d="M47.461,-28.812c0,0,14.347,28.812,20.147,57.623" id="open_29_" style="fill:#000000;stroke:#000000;stroke-width:1.5;stroke-linecap:round;stroke-linejoin:round;stroke-miterlimit:10;" />
			<path d="M-55.526,-16.148c0,0-4.149,15.634-7.678,26.985c-1.958,6.299-3.364,9.514-3.743,13.188c0,0,1.069-14.109,2.982-19.342c0,0-2.748,15.74,3.672-5.148L-55.526-16.148z" id="close_18_" style="fill:#000000;" />
			
				<path d="M-47.461,-28.812c0,0-14.347,28.812-20.147,57.623" id="open_25_" style="fill:#000000;stroke:#000000;stroke-width:1.5;stroke-linecap:round;stroke-linejoin:round;stroke-miterlimit:10;" />
			</g>
		</g>
</g>
</g></g></svg>